# This file uses centimeters as units for non-parametric coordinates.

mtllib Floor.mtl
g default
v 3.516057 0.003771 -2.536766
v -2.541056 0.003771 -2.536767
v -2.541057 0.003771 5.446884
v 3.516057 0.003771 5.446885
vt 1.308900 -0.048400
vt 1.308900 1.028700
vt -0.309500 1.028700
vt -0.309500 -0.048400
vn 0.000000 1.000000 0.000000
vn 0.000000 1.000000 0.000000
vn 0.000000 1.000000 0.000000
vn 0.000000 1.000000 0.000000
vn 0.000000 1.000000 0.000000
vn 0.000000 1.000000 0.000000
s off
g Mesh135:Mesh
usemtl initialShadingGroup
f 1/1/1 2/2/2 3/3/3
f 1/1/4 3/3/5 4/4/6
