# This file uses centimeters as units for non-parametric coordinates.

mtllib SmallWorktop.mtl
g default
v 0.448525 0.943574 0.489213
v 0.448525 0.982838 0.489213
v 0.448524 0.982838 1.317660
v 0.448525 0.943574 1.317660
v 0.448525 0.943574 0.489213
v 0.445525 0.940574 0.489213
v 0.445525 0.943574 0.486213
v 0.448525 0.943574 0.489213
v 0.448525 0.943574 1.317660
v 0.445525 0.940574 1.317660
v 0.445525 0.940574 0.489213
v 0.448525 0.943574 1.317660
v 0.448524 0.982838 1.317660
v 0.445524 0.982838 1.320660
v 0.445525 0.943574 1.320660
v 0.448524 0.982838 1.317660
v 0.448525 0.982838 0.489213
v 0.445525 0.985838 0.489213
v 0.445524 0.985838 1.317660
v 0.445525 0.982838 0.486213
v 0.445525 0.943574 0.486213
v -0.685623 0.943574 0.486212
v -0.685623 0.982838 0.486213
v 0.445525 0.943574 1.320660
v 0.445524 0.982838 1.320660
v -0.685623 0.982838 1.320659
v -0.685623 0.943574 1.320660
v -0.688623 0.943574 1.317660
v -0.688623 0.982838 1.317659
v -0.688623 0.982838 0.489213
v -0.688623 0.943574 0.489212
v 0.445524 0.985838 1.317660
v 0.445525 0.985838 0.489213
v -0.685623 0.985838 0.489213
v -0.685623 0.985838 1.317659
v 0.445525 0.943574 1.320660
v 0.445525 0.940574 1.317660
v 0.448525 0.943574 1.317660
v -0.685623 0.943574 1.320660
v -0.688623 0.943574 1.317660
v -0.685623 0.940574 1.317660
v -0.685623 0.943574 0.486212
v -0.685623 0.940574 0.489212
v -0.688623 0.943574 0.489212
v 0.445524 0.982838 1.320660
v 0.448524 0.982838 1.317660
v 0.445524 0.985838 1.317660
v 0.445525 0.982838 0.486213
v 0.445525 0.985838 0.489213
v 0.448525 0.982838 0.489213
v -0.688623 0.982838 1.317659
v -0.685623 0.982838 1.320659
v -0.685623 0.985838 1.317659
v -0.685623 0.982838 0.486213
v -0.688623 0.982838 0.489213
v -0.685623 0.985838 0.489213
v 0.445525 0.943574 1.320660
v -0.685623 0.943574 1.320660
v -0.685623 0.940574 1.317660
v 0.445525 0.940574 1.317660
v 0.445525 0.940574 0.489213
v -0.685623 0.940574 0.489212
v -0.685623 0.943574 0.486212
v 0.445525 0.943574 0.486213
v -0.688623 0.943574 1.317660
v -0.688623 0.943574 0.489212
v -0.685623 0.940574 0.489212
v -0.685623 0.940574 1.317660
v 0.445525 0.943574 0.486213
v 0.445525 0.982838 0.486213
v 0.448525 0.982838 0.489213
v 0.448525 0.943574 0.489213
v -0.685623 0.943574 1.320660
v -0.685623 0.982838 1.320659
v -0.688623 0.982838 1.317659
v -0.688623 0.943574 1.317660
v -0.688623 0.943574 0.489212
v -0.688623 0.982838 0.489213
v -0.685623 0.982838 0.486213
v -0.685623 0.943574 0.486212
v 0.445524 0.985838 1.317660
v -0.685623 0.985838 1.317659
v -0.685623 0.982838 1.320659
v 0.445524 0.982838 1.320660
v -0.685623 0.985838 1.317659
v -0.685623 0.985838 0.489213
v -0.688623 0.982838 0.489213
v -0.688623 0.982838 1.317659
v 0.445525 0.982838 0.486213
v -0.685623 0.982838 0.486213
v -0.685623 0.985838 0.489213
v 0.445525 0.985838 0.489213
v 0.445525 0.940574 0.489213
v 0.445525 0.940574 1.317660
v -0.685623 0.940574 1.317660
v -0.685623 0.940574 0.489212
vt 0.961100 0.015300
vt 0.985500 0.015300
vt 0.985500 0.639600
vt 0.961100 0.639600
vt 0.961100 0.015300
vt 0.959200 0.015300
vt 0.961100 0.013100
vt 0.961100 0.015300
vt 0.961100 0.639600
vt 0.959200 0.639600
vt 0.959200 0.015300
vt 0.961100 0.639600
vt 0.985500 0.639600
vt 0.985500 0.641900
vt 0.961100 0.641900
vt 0.985500 0.639600
vt 0.985500 0.015300
vt 0.987400 0.015300
vt 0.987400 0.639600
vt 0.453400 0.667800
vt 0.453400 0.703600
vt 0.008200 0.703600
vt 0.008200 0.667800
vt 0.453400 0.713900
vt 0.453400 0.752800
vt 0.008200 0.752800
vt 0.008200 0.713900
vt 0.948200 0.639600
vt 0.924000 0.639600
vt 0.924000 0.015300
vt 0.948200 0.015300
vt 0.905000 0.012300
vt 0.905000 0.640300
vt 0.459500 0.640300
vt 0.459500 0.012300
vt 0.453400 0.713900
vt 0.453400 0.710900
vt 0.454600 0.713900
vt 0.008200 0.713900
vt 0.007000 0.713900
vt 0.008200 0.710900
vt 0.008200 0.703600
vt 0.008200 0.706400
vt 0.007000 0.703600
vt 0.453400 0.752800
vt 0.454600 0.752800
vt 0.453400 0.755800
vt 0.453400 0.667800
vt 0.453400 0.665100
vt 0.454600 0.667800
vt 0.924000 0.639600
vt 0.924000 0.641900
vt 0.922100 0.639600
vt 0.008200 0.667800
vt 0.007000 0.667800
vt 0.008200 0.665100
vt 0.453400 0.713900
vt 0.008200 0.713900
vt 0.008200 0.710900
vt 0.453400 0.710900
vt 0.452700 0.012700
vt 0.007200 0.012700
vt 0.007200 0.010400
vt 0.452700 0.010400
vt 0.948200 0.639600
vt 0.948200 0.015300
vt 0.950000 0.015300
vt 0.950000 0.639600
vt 0.453400 0.703600
vt 0.453400 0.667800
vt 0.454600 0.667800
vt 0.454600 0.703600
vt 0.008200 0.713900
vt 0.008200 0.752800
vt 0.007000 0.752800
vt 0.007000 0.713900
vt 0.948200 0.015300
vt 0.924000 0.015300
vt 0.924000 0.013100
vt 0.948200 0.013100
vt 0.905000 0.012300
vt 0.459500 0.012300
vt 0.459500 0.010000
vt 0.905000 0.010000
vt 0.459500 0.012300
vt 0.459500 0.640300
vt 0.458300 0.640300
vt 0.458300 0.012300
vt 0.453400 0.667800
vt 0.008200 0.667800
vt 0.008200 0.665100
vt 0.453400 0.665100
vt 0.452700 0.012700
vt 0.452700 0.640800
vt 0.007200 0.640800
vt 0.007200 0.012700
vn 1.000000 0.000000 0.000000
vn 1.000000 0.000000 0.000000
vn 1.000000 0.000000 0.000000
vn 1.000000 0.000000 0.000000
vn 1.000000 0.000000 0.000000
vn 1.000000 0.000000 0.000000
vn 0.577350 -0.577350 -0.577350
vn 0.577350 -0.577350 -0.577350
vn 0.577350 -0.577350 -0.577350
vn 0.707107 -0.707107 0.000000
vn 0.707107 -0.707107 0.000000
vn 0.707107 -0.707107 0.000000
vn 0.707107 -0.707107 0.000000
vn 0.707107 -0.707107 0.000000
vn 0.707107 -0.707107 0.000000
vn 0.707107 0.000000 0.707107
vn 0.707107 0.000000 0.707107
vn 0.707107 0.000000 0.707107
vn 0.707107 0.000000 0.707107
vn 0.707107 0.000000 0.707107
vn 0.707107 0.000000 0.707107
vn 0.707107 0.707107 0.000000
vn 0.707107 0.707107 0.000000
vn 0.707107 0.707107 0.000000
vn 0.707107 0.707107 0.000000
vn 0.707107 0.707107 0.000000
vn 0.707107 0.707107 0.000000
vn 0.000000 0.000000 -1.000000
vn 0.000000 0.000000 -1.000000
vn 0.000000 0.000000 -1.000000
vn 0.000000 0.000000 -1.000000
vn 0.000000 0.000000 -1.000000
vn 0.000000 0.000000 -1.000000
vn 0.000000 0.000000 1.000000
vn 0.000000 0.000000 1.000000
vn 0.000000 0.000000 1.000000
vn 0.000000 0.000000 1.000000
vn 0.000000 0.000000 1.000000
vn 0.000000 0.000000 1.000000
vn -1.000000 0.000000 0.000000
vn -1.000000 0.000000 0.000000
vn -1.000000 0.000000 0.000000
vn -1.000000 0.000000 0.000000
vn -1.000000 0.000000 0.000000
vn -1.000000 0.000000 0.000000
vn 0.000000 1.000000 0.000000
vn 0.000000 1.000000 0.000000
vn 0.000000 1.000000 0.000000
vn 0.000000 1.000000 0.000000
vn 0.000000 1.000000 0.000000
vn 0.000000 1.000000 0.000000
vn 0.577384 -0.577284 0.577384
vn 0.577384 -0.577284 0.577384
vn 0.577384 -0.577284 0.577384
vn -0.577350 -0.577350 0.577350
vn -0.577350 -0.577350 0.577350
vn -0.577350 -0.577350 0.577350
vn -0.577284 -0.577384 -0.577384
vn -0.577284 -0.577384 -0.577384
vn -0.577284 -0.577384 -0.577384
vn 0.577284 0.577384 0.577384
vn 0.577284 0.577384 0.577384
vn 0.577284 0.577384 0.577384
vn 0.577417 0.577317 -0.577317
vn 0.577417 0.577317 -0.577317
vn 0.577417 0.577317 -0.577317
vn -0.577384 0.577384 0.577284
vn -0.577384 0.577384 0.577284
vn -0.577384 0.577384 0.577284
vn -0.577384 0.577384 -0.577284
vn -0.577384 0.577384 -0.577284
vn -0.577384 0.577384 -0.577284
vn 0.000000 -0.707107 0.707107
vn 0.000000 -0.707107 0.707107
vn 0.000000 -0.707107 0.707107
vn 0.000000 -0.707107 0.707107
vn 0.000000 -0.707107 0.707107
vn 0.000000 -0.707107 0.707107
vn 0.000000 -0.707107 -0.707107
vn 0.000000 -0.707107 -0.707107
vn 0.000000 -0.707107 -0.707107
vn 0.000000 -0.707107 -0.707107
vn 0.000000 -0.707107 -0.707107
vn 0.000000 -0.707107 -0.707107
vn -0.707107 -0.707107 0.000000
vn -0.707107 -0.707107 0.000000
vn -0.707107 -0.707107 0.000000
vn -0.707107 -0.707107 0.000000
vn -0.707107 -0.707107 0.000000
vn -0.707107 -0.707107 0.000000
vn 0.707107 0.000000 -0.707107
vn 0.707107 0.000000 -0.707107
vn 0.707107 0.000000 -0.707107
vn 0.707107 0.000000 -0.707107
vn 0.707107 0.000000 -0.707107
vn 0.707107 0.000000 -0.707107
vn -0.707107 0.000000 0.707107
vn -0.707107 0.000000 0.707107
vn -0.707107 0.000000 0.707107
vn -0.707107 0.000000 0.707107
vn -0.707107 0.000000 0.707107
vn -0.707107 0.000000 0.707107
vn -0.707107 0.000000 -0.707107
vn -0.707107 0.000000 -0.707107
vn -0.707107 0.000000 -0.707107
vn -0.707107 0.000000 -0.707107
vn -0.707107 0.000000 -0.707107
vn -0.707107 0.000000 -0.707107
vn 0.000000 0.707107 0.707107
vn 0.000000 0.707107 0.707107
vn 0.000000 0.707107 0.707107
vn 0.000000 0.707107 0.707107
vn 0.000000 0.707107 0.707107
vn 0.000000 0.707107 0.707107
vn -0.707107 0.707107 0.000000
vn -0.707107 0.707107 0.000000
vn -0.707107 0.707107 0.000000
vn -0.707107 0.707107 0.000000
vn -0.707107 0.707107 0.000000
vn -0.707107 0.707107 0.000000
vn 0.000000 0.707107 -0.707107
vn 0.000000 0.707107 -0.707107
vn 0.000000 0.707107 -0.707107
vn 0.000000 0.707107 -0.707107
vn 0.000000 0.707107 -0.707107
vn 0.000000 0.707107 -0.707107
vn 0.000000 -1.000000 0.000000
vn 0.000000 -1.000000 0.000000
vn 0.000000 -1.000000 0.000000
vn 0.000000 -1.000000 0.000000
vn 0.000000 -1.000000 0.000000
vn 0.000000 -1.000000 0.000000
s off
g SmallWorktop
usemtl initialShadingGroup
f 1/1/1 2/2/2 3/3/3
f 1/1/4 3/3/5 4/4/6
f 5/5/7 6/6/8 7/7/9
f 8/8/10 9/9/11 10/10/12
f 8/8/13 10/10/14 11/11/15
f 12/12/16 13/13/17 14/14/18
f 12/12/19 14/14/20 15/15/21
f 16/16/22 17/17/23 18/18/24
f 16/16/25 18/18/26 19/19/27
f 20/20/28 21/21/29 22/22/30
f 20/20/31 22/22/32 23/23/33
f 24/24/34 25/25/35 26/26/36
f 24/24/37 26/26/38 27/27/39
f 28/28/40 29/29/41 30/30/42
f 28/28/43 30/30/44 31/31/45
f 32/32/46 33/33/47 34/34/48
f 32/32/49 34/34/50 35/35/51
f 36/36/52 37/37/53 38/38/54
f 39/39/55 40/40/56 41/41/57
f 42/42/58 43/43/59 44/44/60
f 45/45/61 46/46/62 47/47/63
f 48/48/64 49/49/65 50/50/66
f 51/51/67 52/52/68 53/53/69
f 54/54/70 55/55/71 56/56/72
f 57/57/73 58/58/74 59/59/75
f 57/57/76 59/59/77 60/60/78
f 61/61/79 62/62/80 63/63/81
f 61/61/82 63/63/83 64/64/84
f 65/65/85 66/66/86 67/67/87
f 65/65/88 67/67/89 68/68/90
f 69/69/91 70/70/92 71/71/93
f 69/69/94 71/71/95 72/72/96
f 73/73/97 74/74/98 75/75/99
f 73/73/100 75/75/101 76/76/102
f 77/77/103 78/78/104 79/79/105
f 77/77/106 79/79/107 80/80/108
f 81/81/109 82/82/110 83/83/111
f 81/81/112 83/83/113 84/84/114
f 85/85/115 86/86/116 87/87/117
f 85/85/118 87/87/119 88/88/120
f 89/89/121 90/90/122 91/91/123
f 89/89/124 91/91/125 92/92/126
f 93/93/127 94/94/128 95/95/129
f 93/93/130 95/95/131 96/96/132
