# This file uses centimeters as units for non-parametric coordinates.

mtllib ChalkHolder.mtl
g default
v 0.003468 0.739487 -5.663823
v 0.252646 0.739487 -5.663823
v 0.252646 0.739487 -5.652624
v 0.003468 0.739487 -5.652624
v 0.252646 0.739487 -5.652624
v 0.252646 0.879475 -5.652624
v 0.003468 0.879475 -5.652624
v 0.003468 0.739487 -5.652624
v 0.252646 0.739487 -5.663823
v 0.252646 0.879475 -5.663823
v 0.252646 0.879475 -5.652624
v 0.252646 0.739487 -5.652624
v 0.015482 0.867462 -5.885134
v 0.240633 0.867462 -5.885134
v 0.240633 0.751500 -5.885134
v 0.015482 0.751500 -5.885134
v 0.003468 0.879475 -5.652624
v 0.003468 0.879475 -5.663823
v 0.003468 0.739487 -5.663823
v 0.003468 0.739487 -5.652624
v 0.252646 0.879475 -5.652624
v 0.252646 0.879475 -5.663823
v 0.003468 0.879475 -5.663823
v 0.003468 0.879475 -5.652624
v 0.003468 0.879475 -5.663823
v 0.015482 0.867462 -5.663823
v 0.015482 0.751500 -5.663823
v 0.003468 0.739487 -5.663823
v 0.240633 0.751500 -5.663823
v 0.252646 0.739487 -5.663823
v 0.240633 0.867462 -5.663823
v 0.252646 0.879475 -5.663823
v 0.015482 0.867462 -5.663823
v 0.015482 0.867462 -5.885134
v 0.015482 0.751500 -5.885134
v 0.015482 0.751500 -5.663823
v 0.015482 0.751500 -5.885134
v 0.240633 0.751500 -5.885134
v 0.240633 0.751500 -5.663823
v 0.015482 0.751500 -5.663823
v 0.240633 0.751500 -5.885134
v 0.240633 0.867462 -5.885134
v 0.240633 0.867462 -5.663823
v 0.240633 0.751500 -5.663823
v 0.240633 0.867462 -5.663823
v 0.240633 0.867462 -5.885134
v 0.015482 0.867462 -5.885134
v 0.015482 0.867462 -5.663823
v -0.252646 0.739487 -5.652624
v -0.252646 0.739487 -5.663823
v -0.003468 0.739487 -5.663823
v -0.003468 0.739487 -5.652624
v -0.003468 0.879475 -5.652624
v -0.252646 0.879475 -5.652624
v -0.252646 0.739487 -5.652624
v -0.003468 0.739487 -5.652624
v -0.252646 0.879475 -5.652624
v -0.252646 0.879475 -5.663823
v -0.252646 0.739487 -5.663823
v -0.252646 0.739487 -5.652624
v -0.240633 0.751500 -5.885134
v -0.240633 0.867462 -5.885134
v -0.015482 0.867462 -5.885134
v -0.015482 0.751500 -5.885134
v -0.003468 0.739487 -5.663823
v -0.003468 0.879475 -5.663823
v -0.003468 0.879475 -5.652624
v -0.003468 0.739487 -5.652624
v -0.003468 0.879475 -5.663823
v -0.252646 0.879475 -5.663823
v -0.252646 0.879475 -5.652624
v -0.003468 0.879475 -5.652624
v -0.015482 0.751500 -5.663823
v -0.015482 0.867462 -5.663823
v -0.003468 0.879475 -5.663823
v -0.003468 0.739487 -5.663823
v -0.252646 0.739487 -5.663823
v -0.240633 0.751500 -5.663823
v -0.252646 0.879475 -5.663823
v -0.240633 0.867462 -5.663823
v -0.015482 0.751500 -5.885134
v -0.015482 0.867462 -5.885134
v -0.015482 0.867462 -5.663823
v -0.015482 0.751500 -5.663823
v -0.240633 0.751500 -5.663823
v -0.240633 0.751500 -5.885134
v -0.015482 0.751500 -5.885134
v -0.015482 0.751500 -5.663823
v -0.240633 0.867462 -5.663823
v -0.240633 0.867462 -5.885134
v -0.240633 0.751500 -5.885134
v -0.240633 0.751500 -5.663823
v -0.015482 0.867462 -5.885134
v -0.240633 0.867462 -5.885134
v -0.240633 0.867462 -5.663823
v -0.015482 0.867462 -5.663823
vt 0.000000 0.000000
vt 0.000000 0.000000
vt 0.000000 0.000000
vt 0.000000 0.000000
vt 0.000000 0.000000
vt 0.000000 0.000000
vt 0.000000 0.000000
vt 0.000000 0.000000
vt 0.000000 0.000000
vt 0.000000 0.000000
vt 0.000000 0.000000
vt 0.000000 0.000000
vt 0.000000 0.000000
vt 0.000000 0.000000
vt 0.000000 0.000000
vt 0.000000 0.000000
vt 0.000000 0.000000
vt 0.000000 0.000000
vt 0.000000 0.000000
vt 0.000000 0.000000
vt 0.000000 0.000000
vt 0.000000 0.000000
vt 0.000000 0.000000
vt 0.000000 0.000000
vt 0.000000 0.000000
vt 0.000000 0.000000
vt 0.000000 0.000000
vt 0.000000 0.000000
vt 0.000000 0.000000
vt 0.000000 0.000000
vt 0.000000 0.000000
vt 0.000000 0.000000
vt 0.000000 0.000000
vt 0.000000 0.000000
vt 0.000000 0.000000
vt 0.000000 0.000000
vt 0.000000 0.000000
vt 0.000000 0.000000
vt 0.000000 0.000000
vt 0.000000 0.000000
vt 0.000000 0.000000
vt 0.000000 0.000000
vt 0.000000 0.000000
vt 0.000000 0.000000
vt 0.000000 0.000000
vt 0.000000 0.000000
vt 0.000000 0.000000
vt 0.000000 0.000000
vt 0.000000 0.000000
vt 0.000000 0.000000
vt 0.000000 0.000000
vt 0.000000 0.000000
vt 0.000000 0.000000
vt 0.000000 0.000000
vt 0.000000 0.000000
vt 0.000000 0.000000
vt 0.000000 0.000000
vt 0.000000 0.000000
vt 0.000000 0.000000
vt 0.000000 0.000000
vt 0.000000 0.000000
vt 0.000000 0.000000
vt 0.000000 0.000000
vt 0.000000 0.000000
vt 0.000000 0.000000
vt 0.000000 0.000000
vt 0.000000 0.000000
vt 0.000000 0.000000
vt 0.000000 0.000000
vt 0.000000 0.000000
vt 0.000000 0.000000
vt 0.000000 0.000000
vt 0.000000 0.000000
vt 0.000000 0.000000
vt 0.000000 0.000000
vt 0.000000 0.000000
vt 0.000000 0.000000
vt 0.000000 0.000000
vt 0.000000 0.000000
vt 0.000000 0.000000
vt 0.000000 0.000000
vt 0.000000 0.000000
vt 0.000000 0.000000
vt 0.000000 0.000000
vt 0.000000 0.000000
vt 0.000000 0.000000
vt 0.000000 0.000000
vt 0.000000 0.000000
vt 0.000000 0.000000
vt 0.000000 0.000000
vt 0.000000 0.000000
vt 0.000000 0.000000
vt 0.000000 0.000000
vt 0.000000 0.000000
vt 0.000000 0.000000
vt 0.000000 0.000000
vn 0.000000 -1.000000 0.000000
vn 0.000000 -1.000000 0.000000
vn 0.000000 -1.000000 0.000000
vn 0.000000 -1.000000 0.000000
vn 0.000000 -1.000000 0.000000
vn 0.000000 -1.000000 0.000000
vn 0.000000 0.000000 1.000000
vn 0.000000 0.000000 1.000000
vn 0.000000 0.000000 1.000000
vn 0.000000 0.000000 1.000000
vn 0.000000 0.000000 1.000000
vn 0.000000 0.000000 1.000000
vn 1.000000 0.000000 0.000000
vn 1.000000 0.000000 0.000000
vn 1.000000 0.000000 0.000000
vn 1.000000 0.000000 0.000000
vn 1.000000 0.000000 0.000000
vn 1.000000 0.000000 0.000000
vn 0.000000 0.000000 -1.000000
vn 0.000000 0.000000 -1.000000
vn 0.000000 0.000000 -1.000000
vn 0.000000 0.000000 -1.000000
vn 0.000000 0.000000 -1.000000
vn 0.000000 0.000000 -1.000000
vn -1.000000 0.000000 0.000000
vn -1.000000 0.000000 0.000000
vn -1.000000 0.000000 0.000000
vn -1.000000 0.000000 0.000000
vn -1.000000 0.000000 0.000000
vn -1.000000 0.000000 0.000000
vn 0.000000 1.000000 0.000000
vn 0.000000 1.000000 0.000000
vn 0.000000 1.000000 0.000000
vn 0.000000 1.000000 0.000000
vn 0.000000 1.000000 0.000000
vn 0.000000 1.000000 0.000000
vn 0.000000 0.000000 -1.000000
vn 0.000000 0.000000 -1.000000
vn 0.000000 0.000000 -1.000000
vn 0.000000 0.000000 -1.000000
vn 0.000000 0.000000 -1.000000
vn 0.000000 0.000000 -1.000000
vn 0.000000 0.000000 -1.000000
vn 0.000000 0.000000 -1.000000
vn 0.000000 0.000000 -1.000000
vn 0.000000 0.000000 -1.000000
vn 0.000000 0.000000 -1.000000
vn 0.000000 0.000000 -1.000000
vn 0.000000 0.000000 -1.000000
vn 0.000000 0.000000 -1.000000
vn 0.000000 0.000000 -1.000000
vn 0.000000 0.000000 -1.000000
vn 0.000000 0.000000 -1.000000
vn 0.000000 0.000000 -1.000000
vn 0.000000 0.000000 -1.000000
vn 0.000000 0.000000 -1.000000
vn 0.000000 0.000000 -1.000000
vn 0.000000 0.000000 -1.000000
vn 0.000000 0.000000 -1.000000
vn 0.000000 0.000000 -1.000000
vn -1.000000 0.000000 0.000000
vn -1.000000 0.000000 0.000000
vn -1.000000 0.000000 0.000000
vn -1.000000 0.000000 0.000000
vn -1.000000 0.000000 0.000000
vn -1.000000 0.000000 0.000000
vn 0.000000 -1.000000 0.000000
vn 0.000000 -1.000000 0.000000
vn 0.000000 -1.000000 0.000000
vn 0.000000 -1.000000 0.000000
vn 0.000000 -1.000000 0.000000
vn 0.000000 -1.000000 0.000000
vn 1.000000 0.000000 0.000000
vn 1.000000 0.000000 0.000000
vn 1.000000 0.000000 0.000000
vn 1.000000 0.000000 0.000000
vn 1.000000 0.000000 0.000000
vn 1.000000 0.000000 0.000000
vn 0.000000 1.000000 0.000000
vn 0.000000 1.000000 0.000000
vn 0.000000 1.000000 0.000000
vn 0.000000 1.000000 0.000000
vn 0.000000 1.000000 0.000000
vn 0.000000 1.000000 0.000000
vn 0.000000 -1.000000 0.000000
vn 0.000000 -1.000000 0.000000
vn 0.000000 -1.000000 0.000000
vn 0.000000 -1.000000 0.000000
vn 0.000000 -1.000000 0.000000
vn 0.000000 -1.000000 0.000000
vn 0.000000 0.000000 1.000000
vn 0.000000 0.000000 1.000000
vn 0.000000 0.000000 1.000000
vn 0.000000 0.000000 1.000000
vn 0.000000 0.000000 1.000000
vn 0.000000 0.000000 1.000000
vn -1.000000 0.000000 0.000000
vn -1.000000 0.000000 0.000000
vn -1.000000 0.000000 0.000000
vn -1.000000 0.000000 0.000000
vn -1.000000 0.000000 0.000000
vn -1.000000 0.000000 0.000000
vn 0.000000 0.000000 -1.000000
vn 0.000000 0.000000 -1.000000
vn 0.000000 0.000000 -1.000000
vn 0.000000 0.000000 -1.000000
vn 0.000000 0.000000 -1.000000
vn 0.000000 0.000000 -1.000000
vn 1.000000 0.000000 0.000000
vn 1.000000 0.000000 0.000000
vn 1.000000 0.000000 0.000000
vn 1.000000 0.000000 0.000000
vn 1.000000 0.000000 0.000000
vn 1.000000 0.000000 0.000000
vn 0.000000 1.000000 0.000000
vn 0.000000 1.000000 0.000000
vn 0.000000 1.000000 0.000000
vn 0.000000 1.000000 0.000000
vn 0.000000 1.000000 0.000000
vn 0.000000 1.000000 0.000000
vn 0.000000 0.000000 -1.000000
vn 0.000000 0.000000 -1.000000
vn 0.000000 0.000000 -1.000000
vn 0.000000 0.000000 -1.000000
vn 0.000000 0.000000 -1.000000
vn 0.000000 0.000000 -1.000000
vn 0.000000 0.000000 -1.000000
vn 0.000000 0.000000 -1.000000
vn 0.000000 0.000000 -1.000000
vn 0.000000 0.000000 -1.000000
vn 0.000000 0.000000 -1.000000
vn 0.000000 0.000000 -1.000000
vn 0.000000 0.000000 -1.000000
vn 0.000000 0.000000 -1.000000
vn 0.000000 0.000000 -1.000000
vn 0.000000 0.000000 -1.000000
vn 0.000000 0.000000 -1.000000
vn 0.000000 0.000000 -1.000000
vn 0.000000 0.000000 -1.000000
vn 0.000000 0.000000 -1.000000
vn 0.000000 0.000000 -1.000000
vn 0.000000 0.000000 -1.000000
vn 0.000000 0.000000 -1.000000
vn 0.000000 0.000000 -1.000000
vn 1.000000 0.000000 0.000000
vn 1.000000 0.000000 0.000000
vn 1.000000 0.000000 0.000000
vn 1.000000 0.000000 0.000000
vn 1.000000 0.000000 0.000000
vn 1.000000 0.000000 0.000000
vn 0.000000 -1.000000 0.000000
vn 0.000000 -1.000000 0.000000
vn 0.000000 -1.000000 0.000000
vn 0.000000 -1.000000 0.000000
vn 0.000000 -1.000000 0.000000
vn 0.000000 -1.000000 0.000000
vn -1.000000 0.000000 0.000000
vn -1.000000 0.000000 0.000000
vn -1.000000 0.000000 0.000000
vn -1.000000 0.000000 0.000000
vn -1.000000 0.000000 0.000000
vn -1.000000 0.000000 0.000000
vn 0.000000 1.000000 0.000000
vn 0.000000 1.000000 0.000000
vn 0.000000 1.000000 0.000000
vn 0.000000 1.000000 0.000000
vn 0.000000 1.000000 0.000000
vn 0.000000 1.000000 0.000000
s off
g ChalkHolder
usemtl initialShadingGroup
f 1/1/1 2/2/2 3/3/3
f 1/1/4 3/3/5 4/4/6
f 5/5/7 6/6/8 7/7/9
f 5/5/10 7/7/11 8/8/12
f 9/9/13 10/10/14 11/11/15
f 9/9/16 11/11/17 12/12/18
f 13/13/19 14/14/20 15/15/21
f 13/13/22 15/15/23 16/16/24
f 17/17/25 18/18/26 19/19/27
f 17/17/28 19/19/29 20/20/30
f 21/21/31 22/22/32 23/23/33
f 21/21/34 23/23/35 24/24/36
f 25/25/37 26/26/38 27/27/39
f 25/25/40 27/27/41 28/28/42
f 27/27/43 29/29/44 30/30/45
f 27/27/46 30/30/47 28/28/48
f 29/29/49 31/31/50 32/32/51
f 29/29/52 32/32/53 30/30/54
f 25/25/55 32/32/56 31/31/57
f 25/25/58 31/31/59 26/26/60
f 33/33/61 34/34/62 35/35/63
f 33/33/64 35/35/65 36/36/66
f 37/37/67 38/38/68 39/39/69
f 37/37/70 39/39/71 40/40/72
f 41/41/73 42/42/74 43/43/75
f 41/41/76 43/43/77 44/44/78
f 45/45/79 46/46/80 47/47/81
f 45/45/82 47/47/83 48/48/84
f 49/49/85 50/50/86 51/51/87
f 49/49/88 51/51/89 52/52/90
f 53/53/91 54/54/92 55/55/93
f 53/53/94 55/55/95 56/56/96
f 57/57/97 58/58/98 59/59/99
f 57/57/100 59/59/101 60/60/102
f 61/61/103 62/62/104 63/63/105
f 61/61/106 63/63/107 64/64/108
f 65/65/109 66/66/110 67/67/111
f 65/65/112 67/67/113 68/68/114
f 69/69/115 70/70/116 71/71/117
f 69/69/118 71/71/119 72/72/120
f 73/73/121 74/74/122 75/75/123
f 73/73/124 75/75/125 76/76/126
f 77/77/127 78/78/128 73/73/129
f 77/77/130 73/73/131 76/76/132
f 79/79/133 80/80/134 78/78/135
f 79/79/136 78/78/137 77/77/138
f 80/80/139 79/79/140 75/75/141
f 80/80/142 75/75/143 74/74/144
f 81/81/145 82/82/146 83/83/147
f 81/81/148 83/83/149 84/84/150
f 85/85/151 86/86/152 87/87/153
f 85/85/154 87/87/155 88/88/156
f 89/89/157 90/90/158 91/91/159
f 89/89/160 91/91/161 92/92/162
f 93/93/163 94/94/164 95/95/165
f 93/93/166 95/95/167 96/96/168
