# This file uses centimeters as units for non-parametric coordinates.

mtllib ProjectorScreen.mtl
g default
v -2.097034 2.738749 -5.555152
v 1.825795 2.738752 -5.555152
v 1.825795 2.728017 -5.554094
v -2.097034 2.728014 -5.554094
v 1.825795 2.717695 -5.550963
v -2.097034 2.717691 -5.550963
v 1.825795 2.708181 -5.545878
v -2.097034 2.708178 -5.545878
v 1.825795 2.699843 -5.539035
v -2.097034 2.699839 -5.539035
v 1.825795 2.567177 -5.530696
v -2.097034 2.567173 -5.530696
v -2.097034 2.567173 -5.530696
v 1.825795 2.567177 -5.530696
v 1.825795 2.687915 -5.521183
v -2.097034 2.687911 -5.521183
v -2.097034 2.687911 -5.521183
v 1.825795 2.687915 -5.521183
v 1.825795 2.684783 -5.510861
v -2.097034 2.684780 -5.510861
v 1.825795 2.683726 -5.500126
v -2.097034 2.683722 -5.500126
v 1.825795 2.684783 -5.489391
v -2.097034 2.684780 -5.489391
v 1.825795 2.687915 -5.479068
v -2.097034 2.687911 -5.479068
v 1.825795 2.693000 -5.469555
v -2.097034 2.692996 -5.469555
v 1.825795 2.699843 -5.461217
v -2.097034 2.699839 -5.461217
v 1.825795 2.708181 -5.454373
v -2.097034 2.708178 -5.454373
v 1.825795 2.717695 -5.449289
v -2.097034 2.717691 -5.449289
v 1.825795 2.728017 -5.446157
v -2.097034 2.728014 -5.446157
v 1.825795 2.738752 -5.445100
v -2.097034 2.738749 -5.445100
v 1.825795 2.749487 -5.446157
v -2.097034 2.749483 -5.446157
v 1.825795 2.759809 -5.449289
v -2.097034 2.759806 -5.449289
v 1.825795 2.769323 -5.454374
v -2.097034 2.769319 -5.454374
v 1.825795 2.777661 -5.461217
v -2.097034 2.777658 -5.461217
v 1.825795 2.784504 -5.469555
v -2.097034 2.784501 -5.469555
v 1.825795 2.789589 -5.479068
v -2.097034 2.789586 -5.479068
v 1.825795 2.792721 -5.489391
v -2.097034 2.792717 -5.489391
v 1.825795 2.793778 -5.500126
v -2.097034 2.793774 -5.500126
v 1.825795 2.792721 -5.510861
v -2.097034 2.792717 -5.510861
v 1.825795 2.789589 -5.521183
v -2.097034 2.789586 -5.521183
v 1.825795 2.784504 -5.530697
v -2.097034 2.784501 -5.530697
v 1.825795 2.777661 -5.539035
v -2.097034 2.777658 -5.539035
v 1.825795 2.769323 -5.545878
v -2.097034 2.769319 -5.545878
v 1.825795 2.759809 -5.550963
v -2.097034 2.759806 -5.550963
v 1.825795 2.728017 -5.554094
v 1.825795 2.738752 -5.555152
v 1.825795 2.749487 -5.554094
v 1.825795 2.759809 -5.550963
v 1.825795 2.769323 -5.545878
v 1.825795 2.777661 -5.539035
v 1.825795 2.784504 -5.530697
v 1.825795 2.789589 -5.521183
v 1.825795 2.792721 -5.510861
v 1.825795 2.793778 -5.500126
v 1.825795 2.792721 -5.489391
v 1.825795 2.789589 -5.479068
v 1.825795 2.784504 -5.469555
v 1.825795 2.777661 -5.461217
v 1.825795 2.769323 -5.454374
v 1.825795 2.759809 -5.449289
v 1.825795 2.749487 -5.446157
v 1.825795 2.738752 -5.445100
v 1.825795 2.728017 -5.446157
v 1.825795 2.717695 -5.449289
v 1.825795 2.708181 -5.454373
v 1.825795 2.699843 -5.461217
v 1.825795 2.693000 -5.469555
v 1.825795 2.687915 -5.479068
v 1.825795 2.684783 -5.489391
v 1.825795 2.683726 -5.500126
v 1.825795 2.684783 -5.510861
v 1.825795 2.687915 -5.521183
v 1.825795 2.567177 -5.530696
v 1.825795 2.699843 -5.539035
v 1.825795 2.708181 -5.545878
v 1.825795 2.717695 -5.550963
v -2.097034 2.749483 -5.554094
v 1.825795 2.749487 -5.554094
v -2.097034 2.738749 -5.555152
v -2.097034 2.728014 -5.554094
v -2.097034 2.717691 -5.550963
v -2.097034 2.708178 -5.545878
v -2.097034 2.699839 -5.539035
v -2.097034 2.567173 -5.530696
v -2.097034 2.687911 -5.521183
v -2.097034 2.684780 -5.510861
v -2.097034 2.683722 -5.500126
v -2.097034 2.684780 -5.489391
v -2.097034 2.687911 -5.479068
v -2.097034 2.692996 -5.469555
v -2.097034 2.699839 -5.461217
v -2.097034 2.708178 -5.454373
v -2.097034 2.717691 -5.449289
v -2.097034 2.728014 -5.446157
v -2.097034 2.738749 -5.445100
v -2.097034 2.749483 -5.446157
v -2.097034 2.759806 -5.449289
v -2.097034 2.769319 -5.454374
v -2.097034 2.777658 -5.461217
v -2.097034 2.784501 -5.469555
v -2.097034 2.789586 -5.479068
v -2.097034 2.792717 -5.489391
v -2.097034 2.793774 -5.500126
v -2.097034 2.792717 -5.510861
v -2.097034 2.789586 -5.521183
v -2.097034 2.784501 -5.530697
v -2.097034 2.777658 -5.539035
v -2.097034 2.769319 -5.545878
v -2.097034 2.759806 -5.550963
v -2.097034 2.749483 -5.554094
vt 0.000000 0.000000
vt 0.000000 0.000000
vt 0.000000 0.000000
vt 0.000000 0.000000
vt 0.000000 0.000000
vt 0.000000 0.000000
vt 0.000000 0.000000
vt 0.000000 0.000000
vt 0.000000 0.000000
vt 0.000000 0.000000
vt 0.000000 0.000000
vt 0.000000 0.000000
vt 0.000000 0.000000
vt 0.000000 0.000000
vt 0.000000 0.000000
vt 0.000000 0.000000
vt 0.000000 0.000000
vt 0.000000 0.000000
vt 0.000000 0.000000
vt 0.000000 0.000000
vt 0.000000 0.000000
vt 0.000000 0.000000
vt 0.000000 0.000000
vt 0.000000 0.000000
vt 0.000000 0.000000
vt 0.000000 0.000000
vt 0.000000 0.000000
vt 0.000000 0.000000
vt 0.000000 0.000000
vt 0.000000 0.000000
vt 0.000000 0.000000
vt 0.000000 0.000000
vt 0.000000 0.000000
vt 0.000000 0.000000
vt 0.000000 0.000000
vt 0.000000 0.000000
vt 0.000000 0.000000
vt 0.000000 0.000000
vt 0.000000 0.000000
vt 0.000000 0.000000
vt 0.000000 0.000000
vt 0.000000 0.000000
vt 0.000000 0.000000
vt 0.000000 0.000000
vt 0.000000 0.000000
vt 0.000000 0.000000
vt 0.000000 0.000000
vt 0.000000 0.000000
vt 0.000000 0.000000
vt 0.000000 0.000000
vt 0.000000 0.000000
vt 0.000000 0.000000
vt 0.000000 0.000000
vt 0.000000 0.000000
vt 0.000000 0.000000
vt 0.000000 0.000000
vt 0.000000 0.000000
vt 0.000000 0.000000
vt 0.000000 0.000000
vt 0.000000 0.000000
vt 0.000000 0.000000
vt 0.000000 0.000000
vt 0.000000 0.000000
vt 0.000000 0.000000
vt 0.000000 0.000000
vt 0.000000 0.000000
vt 0.000000 0.000000
vt 0.000000 0.000000
vt 0.000000 0.000000
vt 0.000000 0.000000
vt 0.000000 0.000000
vt 0.000000 0.000000
vt 0.000000 0.000000
vt 0.000000 0.000000
vt 0.000000 0.000000
vt 0.000000 0.000000
vt 0.000000 0.000000
vt 0.000000 0.000000
vt 0.000000 0.000000
vt 0.000000 0.000000
vt 0.000000 0.000000
vt 0.000000 0.000000
vt 0.000000 0.000000
vt 0.000000 0.000000
vt 0.000000 0.000000
vt 0.000000 0.000000
vt 0.000000 0.000000
vt 0.000000 0.000000
vt 0.000000 0.000000
vt 0.000000 0.000000
vt 0.000000 0.000000
vt 0.000000 0.000000
vt 0.000000 0.000000
vt 0.000000 0.000000
vt 0.000000 0.000000
vt 0.000000 0.000000
vt 0.000000 0.000000
vt 0.000000 0.000000
vt 0.000000 0.000000
vt 0.000000 0.000000
vt 0.000000 0.000000
vt 0.000000 0.000000
vt 0.000000 0.000000
vt 0.000000 0.000000
vt 0.000000 0.000000
vt 0.000000 0.000000
vt 0.000000 0.000000
vt 0.000000 0.000000
vt 0.000000 0.000000
vt 0.000000 0.000000
vt 0.000000 0.000000
vt 0.000000 0.000000
vt 0.000000 0.000000
vt 0.000000 0.000000
vt 0.000000 0.000000
vt 0.000000 0.000000
vt 0.000000 0.000000
vt 0.000000 0.000000
vt 0.000000 0.000000
vt 0.000000 0.000000
vt 0.000000 0.000000
vt 0.000000 0.000000
vt 0.000000 0.000000
vt 0.000000 0.000000
vt 0.000000 0.000000
vt 0.000000 0.000000
vt 0.000000 0.000000
vt 0.000000 0.000000
vt 0.000000 0.000000
vt 0.000000 0.000000
vt 0.000000 0.000000
vt 0.000000 0.000000
vn 0.000000 0.000000 -1.000000
vn 0.000000 0.000000 -1.000000
vn 0.000000 -0.195097 -0.980784
vn 0.000000 0.000000 -1.000000
vn 0.000000 -0.195097 -0.980784
vn 0.000000 -0.195097 -0.980784
vn 0.000000 -0.195097 -0.980784
vn 0.000000 -0.195097 -0.980784
vn 0.000000 -0.382690 -0.923877
vn 0.000000 -0.195097 -0.980784
vn 0.000000 -0.382690 -0.923877
vn 0.000000 -0.382690 -0.923877
vn 0.000000 -0.382690 -0.923877
vn 0.000000 -0.382690 -0.923877
vn 0.000000 -0.555577 -0.831465
vn 0.000000 -0.382690 -0.923877
vn 0.000000 -0.555577 -0.831465
vn 0.000000 -0.555577 -0.831465
vn 0.000000 -0.555577 -0.831465
vn 0.000000 -0.555577 -0.831465
vn 0.000000 -0.366299 -0.930497
vn 0.000000 -0.555577 -0.831465
vn 0.000000 -0.366299 -0.930497
vn 0.000000 -0.366299 -0.930497
vn 0.000000 -0.366299 -0.930497
vn 0.000000 -0.366299 -0.930497
vn 0.000000 -0.062702 -0.998032
vn 0.000000 -0.366299 -0.930497
vn 0.000000 -0.062702 -0.998032
vn 0.000000 -0.062702 -0.998032
vn 0.000000 -0.078501 0.996914
vn 0.000000 -0.078501 0.996914
vn 0.000000 -0.078501 0.996914
vn 0.000000 -0.078501 0.996914
vn 0.000000 -0.078501 0.996914
vn 0.000000 -0.078501 0.996914
vn 0.000000 -0.956933 -0.290310
vn 0.000000 -0.956933 -0.290310
vn 0.000000 -0.980784 -0.195097
vn 0.000000 -0.956933 -0.290310
vn 0.000000 -0.980784 -0.195097
vn 0.000000 -0.980784 -0.195097
vn 0.000000 -0.980784 -0.195097
vn 0.000000 -0.980784 -0.195097
vn 0.000000 -1.000000 0.000000
vn 0.000000 -0.980784 -0.195097
vn 0.000000 -1.000000 0.000000
vn 0.000000 -1.000000 0.000000
vn 0.000000 -1.000000 0.000000
vn 0.000000 -1.000000 0.000000
vn 0.000000 -0.980784 0.195097
vn 0.000000 -1.000000 0.000000
vn 0.000000 -0.980784 0.195097
vn 0.000000 -0.980784 0.195097
vn 0.000000 -0.980784 0.195097
vn 0.000000 -0.980784 0.195097
vn 0.000000 -0.923877 0.382690
vn 0.000000 -0.980784 0.195097
vn 0.000000 -0.923877 0.382690
vn 0.000000 -0.923877 0.382690
vn 0.000000 -0.923877 0.382690
vn 0.000000 -0.923877 0.382690
vn 0.000000 -0.831465 0.555577
vn 0.000000 -0.923877 0.382690
vn 0.000000 -0.831465 0.555577
vn 0.000000 -0.831465 0.555577
vn 0.000000 -0.831465 0.555577
vn 0.000000 -0.831465 0.555577
vn 0.000000 -0.707107 0.707107
vn 0.000000 -0.831465 0.555577
vn 0.000000 -0.707107 0.707107
vn 0.000000 -0.707107 0.707107
vn 0.000000 -0.707107 0.707107
vn 0.000000 -0.707107 0.707107
vn 0.000000 -0.555577 0.831465
vn 0.000000 -0.707107 0.707107
vn 0.000000 -0.555577 0.831465
vn 0.000000 -0.555577 0.831465
vn 0.000000 -0.555577 0.831465
vn 0.000000 -0.555577 0.831465
vn 0.000000 -0.382690 0.923877
vn 0.000000 -0.555577 0.831465
vn 0.000000 -0.382690 0.923877
vn 0.000000 -0.382690 0.923877
vn 0.000000 -0.382690 0.923877
vn 0.000000 -0.382690 0.923877
vn 0.000000 -0.195097 0.980784
vn 0.000000 -0.382690 0.923877
vn 0.000000 -0.195097 0.980784
vn 0.000000 -0.195097 0.980784
vn 0.000000 -0.195097 0.980784
vn 0.000000 -0.195097 0.980784
vn 0.000000 0.000000 1.000000
vn 0.000000 -0.195097 0.980784
vn 0.000000 0.000000 1.000000
vn 0.000000 0.000000 1.000000
vn 0.000000 0.000000 1.000000
vn 0.000000 0.000000 1.000000
vn 0.000000 0.195097 0.980784
vn 0.000000 0.000000 1.000000
vn 0.000000 0.195097 0.980784
vn 0.000000 0.195097 0.980784
vn 0.000000 0.195097 0.980784
vn 0.000000 0.195097 0.980784
vn 0.000000 0.382690 0.923877
vn 0.000000 0.195097 0.980784
vn 0.000000 0.382690 0.923877
vn 0.000000 0.382690 0.923877
vn 0.000000 0.382690 0.923877
vn 0.000000 0.382690 0.923877
vn 0.000000 0.555577 0.831465
vn 0.000000 0.382690 0.923877
vn 0.000000 0.555577 0.831465
vn 0.000000 0.555577 0.831465
vn 0.000000 0.555577 0.831465
vn 0.000000 0.555577 0.831465
vn 0.000000 0.707107 0.707107
vn 0.000000 0.555577 0.831465
vn 0.000000 0.707107 0.707107
vn 0.000000 0.707107 0.707107
vn 0.000000 0.707107 0.707107
vn 0.000000 0.707107 0.707107
vn 0.000000 0.831465 0.555577
vn 0.000000 0.707107 0.707107
vn 0.000000 0.831465 0.555577
vn 0.000000 0.831465 0.555577
vn 0.000000 0.831465 0.555577
vn 0.000000 0.831465 0.555577
vn 0.000000 0.923877 0.382690
vn 0.000000 0.831465 0.555577
vn 0.000000 0.923877 0.382690
vn 0.000000 0.923877 0.382690
vn 0.000000 0.923877 0.382690
vn 0.000000 0.923877 0.382690
vn 0.000000 0.980784 0.195097
vn 0.000000 0.923877 0.382690
vn 0.000000 0.980784 0.195097
vn 0.000000 0.980784 0.195097
vn 0.000000 0.980784 0.195097
vn 0.000000 0.980784 0.195097
vn 0.000000 1.000000 0.000000
vn 0.000000 0.980784 0.195097
vn 0.000000 1.000000 0.000000
vn 0.000000 1.000000 0.000000
vn 0.000000 1.000000 0.000000
vn 0.000000 1.000000 0.000000
vn -0.000000 0.980784 -0.195097
vn 0.000000 1.000000 0.000000
vn -0.000000 0.980784 -0.195097
vn -0.000000 0.980784 -0.195097
vn -0.000000 0.980784 -0.195097
vn -0.000000 0.980784 -0.195097
vn -0.000000 0.923877 -0.382690
vn -0.000000 0.980784 -0.195097
vn -0.000000 0.923877 -0.382690
vn -0.000000 0.923877 -0.382690
vn -0.000000 0.923877 -0.382690
vn -0.000000 0.923877 -0.382690
vn -0.000000 0.831465 -0.555577
vn -0.000000 0.923877 -0.382690
vn -0.000000 0.831465 -0.555577
vn -0.000000 0.831465 -0.555577
vn -0.000000 0.831465 -0.555577
vn -0.000000 0.831465 -0.555577
vn -0.000000 0.707107 -0.707107
vn -0.000000 0.831465 -0.555577
vn -0.000000 0.707107 -0.707107
vn -0.000000 0.707107 -0.707107
vn -0.000000 0.707107 -0.707107
vn -0.000000 0.707107 -0.707107
vn -0.000000 0.555577 -0.831465
vn -0.000000 0.707107 -0.707107
vn -0.000000 0.555577 -0.831465
vn -0.000000 0.555577 -0.831465
vn -0.000000 0.555577 -0.831465
vn -0.000000 0.555577 -0.831465
vn -0.000000 0.382690 -0.923877
vn -0.000000 0.555577 -0.831465
vn -0.000000 0.382690 -0.923877
vn -0.000000 0.382690 -0.923877
vn 1.000000 -0.000000 0.000000
vn 1.000000 -0.000000 0.000000
vn 1.000000 -0.000000 0.000000
vn 1.000000 -0.000000 0.000000
vn 1.000000 -0.000000 0.000000
vn 1.000000 -0.000000 0.000000
vn 1.000000 -0.000000 0.000000
vn 1.000000 -0.000000 0.000000
vn 1.000000 -0.000000 0.000000
vn 1.000000 -0.000000 0.000000
vn 1.000000 -0.000000 0.000000
vn 1.000000 -0.000000 0.000000
vn 1.000000 -0.000000 0.000000
vn 1.000000 -0.000000 0.000000
vn 1.000000 -0.000000 0.000000
vn 1.000000 -0.000000 0.000000
vn 1.000000 -0.000000 0.000000
vn 1.000000 -0.000000 0.000000
vn 1.000000 -0.000000 0.000000
vn 1.000000 -0.000000 0.000000
vn 1.000000 -0.000000 0.000000
vn 1.000000 -0.000000 0.000000
vn 1.000000 -0.000000 0.000000
vn 1.000000 -0.000000 0.000000
vn 1.000000 -0.000000 0.000000
vn 1.000000 -0.000000 0.000000
vn 1.000000 -0.000000 0.000000
vn 1.000000 -0.000000 0.000000
vn 1.000000 -0.000000 0.000000
vn 1.000000 -0.000000 0.000000
vn 1.000000 -0.000000 0.000000
vn 1.000000 -0.000000 0.000000
vn 1.000000 -0.000000 0.000000
vn 1.000000 -0.000000 0.000000
vn 1.000000 -0.000000 0.000000
vn 1.000000 -0.000000 0.000000
vn 1.000000 -0.000000 0.000000
vn 1.000000 -0.000000 0.000000
vn 1.000000 -0.000000 0.000000
vn 1.000000 -0.000000 0.000000
vn 1.000000 -0.000000 0.000000
vn 1.000000 -0.000000 0.000000
vn 1.000000 -0.000000 0.000000
vn 1.000000 -0.000000 0.000000
vn 1.000000 -0.000000 0.000000
vn 1.000000 -0.000000 0.000000
vn 1.000000 -0.000000 0.000000
vn 1.000000 -0.000000 0.000000
vn 1.000000 -0.000000 0.000000
vn 1.000000 -0.000000 0.000000
vn 1.000000 -0.000000 0.000000
vn 1.000000 -0.000000 0.000000
vn 1.000000 -0.000000 0.000000
vn 1.000000 -0.000000 0.000000
vn 1.000000 -0.000000 0.000000
vn 1.000000 -0.000000 0.000000
vn 1.000000 -0.000000 0.000000
vn 1.000000 -0.000000 0.000000
vn 1.000000 -0.000000 0.000000
vn 1.000000 -0.000000 0.000000
vn 1.000000 -0.000000 0.000000
vn 1.000000 -0.000000 0.000000
vn 1.000000 -0.000000 0.000000
vn 1.000000 -0.000000 0.000000
vn 1.000000 -0.000000 0.000000
vn 1.000000 -0.000000 0.000000
vn 1.000000 -0.000000 0.000000
vn 1.000000 -0.000000 0.000000
vn 1.000000 -0.000000 0.000000
vn 1.000000 -0.000000 0.000000
vn 1.000000 -0.000000 0.000000
vn 1.000000 -0.000000 0.000000
vn 1.000000 -0.000000 0.000000
vn 1.000000 -0.000000 0.000000
vn 1.000000 -0.000000 0.000000
vn 1.000000 -0.000000 0.000000
vn 1.000000 -0.000000 0.000000
vn 1.000000 -0.000000 0.000000
vn 1.000000 -0.000000 0.000000
vn 1.000000 -0.000000 0.000000
vn 1.000000 -0.000000 0.000000
vn 1.000000 -0.000000 0.000000
vn 1.000000 -0.000000 0.000000
vn 1.000000 -0.000000 0.000000
vn 1.000000 -0.000000 0.000000
vn 1.000000 -0.000000 0.000000
vn 1.000000 -0.000000 0.000000
vn 1.000000 -0.000000 0.000000
vn 1.000000 -0.000000 0.000000
vn 1.000000 -0.000000 0.000000
vn -0.000000 0.195097 -0.980784
vn -0.000000 0.195097 -0.980784
vn 0.000000 0.000000 -1.000000
vn -0.000000 0.195097 -0.980784
vn 0.000000 0.000000 -1.000000
vn 0.000000 0.000000 -1.000000
vn -0.000000 0.382690 -0.923877
vn -0.000000 0.382690 -0.923877
vn -0.000000 0.195097 -0.980784
vn -0.000000 0.382690 -0.923877
vn -0.000000 0.195097 -0.980784
vn -0.000000 0.195097 -0.980784
vn -1.000000 0.000000 0.000000
vn -1.000000 0.000000 0.000000
vn -1.000000 0.000000 0.000000
vn -1.000000 0.000000 0.000000
vn -1.000000 0.000000 0.000000
vn -1.000000 0.000000 0.000000
vn -1.000000 0.000000 0.000000
vn -1.000000 0.000000 0.000000
vn -1.000000 0.000000 0.000000
vn -1.000000 0.000000 0.000000
vn -1.000000 0.000000 0.000000
vn -1.000000 0.000000 0.000000
vn -1.000000 0.000000 0.000000
vn -1.000000 0.000000 0.000000
vn -1.000000 0.000000 0.000000
vn -1.000000 0.000000 0.000000
vn -1.000000 0.000000 0.000000
vn -1.000000 0.000000 0.000000
vn -1.000000 0.000000 0.000000
vn -1.000000 0.000000 0.000000
vn -1.000000 0.000000 0.000000
vn -1.000000 0.000000 0.000000
vn -1.000000 0.000000 0.000000
vn -1.000000 0.000000 0.000000
vn -1.000000 0.000000 0.000000
vn -1.000000 0.000000 0.000000
vn -1.000000 0.000000 0.000000
vn -1.000000 0.000000 0.000000
vn -1.000000 0.000000 0.000000
vn -1.000000 0.000000 0.000000
vn -1.000000 0.000000 0.000000
vn -1.000000 0.000000 0.000000
vn -1.000000 0.000000 0.000000
vn -1.000000 0.000000 0.000000
vn -1.000000 0.000000 0.000000
vn -1.000000 0.000000 0.000000
vn -1.000000 0.000000 0.000000
vn -1.000000 0.000000 0.000000
vn -1.000000 0.000000 0.000000
vn -1.000000 0.000000 0.000000
vn -1.000000 0.000000 0.000000
vn -1.000000 0.000000 0.000000
vn -1.000000 0.000000 0.000000
vn -1.000000 0.000000 0.000000
vn -1.000000 0.000000 0.000000
vn -1.000000 0.000000 0.000000
vn -1.000000 0.000000 0.000000
vn -1.000000 0.000000 0.000000
vn -1.000000 0.000000 0.000000
vn -1.000000 0.000000 0.000000
vn -1.000000 0.000000 0.000000
vn -1.000000 0.000000 0.000000
vn -1.000000 0.000000 0.000000
vn -1.000000 0.000000 0.000000
vn -1.000000 0.000000 0.000000
vn -1.000000 0.000000 0.000000
vn -1.000000 0.000000 0.000000
vn -1.000000 0.000000 0.000000
vn -1.000000 0.000000 0.000000
vn -1.000000 0.000000 0.000000
vn -1.000000 0.000000 0.000000
vn -1.000000 0.000000 0.000000
vn -1.000000 0.000000 0.000000
vn -1.000000 0.000000 0.000000
vn -1.000000 0.000000 0.000000
vn -1.000000 0.000000 0.000000
vn -1.000000 0.000000 0.000000
vn -1.000000 0.000000 0.000000
vn -1.000000 0.000000 0.000000
vn -1.000000 0.000000 0.000000
vn -1.000000 0.000000 0.000000
vn -1.000000 0.000000 0.000000
vn -1.000000 0.000000 0.000000
vn -1.000000 0.000000 0.000000
vn -1.000000 0.000000 0.000000
vn -1.000000 0.000000 0.000000
vn -1.000000 0.000000 0.000000
vn -1.000000 0.000000 0.000000
vn -1.000000 0.000000 0.000000
vn -1.000000 0.000000 0.000000
vn -1.000000 0.000000 0.000000
vn -1.000000 0.000000 0.000000
vn -1.000000 0.000000 0.000000
vn -1.000000 0.000000 0.000000
vn -1.000000 0.000000 0.000000
vn -1.000000 0.000000 0.000000
vn -1.000000 0.000000 0.000000
vn -1.000000 0.000000 0.000000
vn -1.000000 0.000000 0.000000
vn -1.000000 0.000000 0.000000
s off
g ProjectorScreen
usemtl initialShadingGroup
f 1/1/1 2/2/2 3/3/3
f 1/1/4 3/3/5 4/4/6
f 4/4/7 3/3/8 5/5/9
f 4/4/10 5/5/11 6/6/12
f 6/6/13 5/5/14 7/7/15
f 6/6/16 7/7/17 8/8/18
f 8/8/19 7/7/20 9/9/21
f 8/8/22 9/9/23 10/10/24
f 10/10/25 9/9/26 11/11/27
f 10/10/28 11/11/29 12/12/30
f 13/13/31 14/14/32 15/15/33
f 13/13/34 15/15/35 16/16/36
f 17/17/37 18/18/38 19/19/39
f 17/17/40 19/19/41 20/20/42
f 20/20/43 19/19/44 21/21/45
f 20/20/46 21/21/47 22/22/48
f 22/22/49 21/21/50 23/23/51
f 22/22/52 23/23/53 24/24/54
f 24/24/55 23/23/56 25/25/57
f 24/24/58 25/25/59 26/26/60
f 26/26/61 25/25/62 27/27/63
f 26/26/64 27/27/65 28/28/66
f 28/28/67 27/27/68 29/29/69
f 28/28/70 29/29/71 30/30/72
f 30/30/73 29/29/74 31/31/75
f 30/30/76 31/31/77 32/32/78
f 32/32/79 31/31/80 33/33/81
f 32/32/82 33/33/83 34/34/84
f 34/34/85 33/33/86 35/35/87
f 34/34/88 35/35/89 36/36/90
f 36/36/91 35/35/92 37/37/93
f 36/36/94 37/37/95 38/38/96
f 38/38/97 37/37/98 39/39/99
f 38/38/100 39/39/101 40/40/102
f 40/40/103 39/39/104 41/41/105
f 40/40/106 41/41/107 42/42/108
f 42/42/109 41/41/110 43/43/111
f 42/42/112 43/43/113 44/44/114
f 44/44/115 43/43/116 45/45/117
f 44/44/118 45/45/119 46/46/120
f 46/46/121 45/45/122 47/47/123
f 46/46/124 47/47/125 48/48/126
f 48/48/127 47/47/128 49/49/129
f 48/48/130 49/49/131 50/50/132
f 50/50/133 49/49/134 51/51/135
f 50/50/136 51/51/137 52/52/138
f 52/52/139 51/51/140 53/53/141
f 52/52/142 53/53/143 54/54/144
f 54/54/145 53/53/146 55/55/147
f 54/54/148 55/55/149 56/56/150
f 56/56/151 55/55/152 57/57/153
f 56/56/154 57/57/155 58/58/156
f 58/58/157 57/57/158 59/59/159
f 58/58/160 59/59/161 60/60/162
f 60/60/163 59/59/164 61/61/165
f 60/60/166 61/61/167 62/62/168
f 62/62/169 61/61/170 63/63/171
f 62/62/172 63/63/173 64/64/174
f 64/64/175 63/63/176 65/65/177
f 64/64/178 65/65/179 66/66/180
f 67/67/181 68/68/182 69/69/183
f 67/67/184 69/69/185 70/70/186
f 67/67/187 70/70/188 71/71/189
f 67/67/190 71/71/191 72/72/192
f 67/67/193 72/72/194 73/73/195
f 67/67/196 73/73/197 74/74/198
f 67/67/199 74/74/200 75/75/201
f 67/67/202 75/75/203 76/76/204
f 67/67/205 76/76/206 77/77/207
f 67/67/208 77/77/209 78/78/210
f 67/67/211 78/78/212 79/79/213
f 67/67/214 79/79/215 80/80/216
f 67/67/217 80/80/218 81/81/219
f 67/67/220 81/81/221 82/82/222
f 67/67/223 82/82/224 83/83/225
f 67/67/226 83/83/227 84/84/228
f 67/67/229 84/84/230 85/85/231
f 67/67/232 85/85/233 86/86/234
f 67/67/235 86/86/236 87/87/237
f 67/67/238 87/87/239 88/88/240
f 67/67/241 88/88/242 89/89/243
f 67/67/244 89/89/245 90/90/246
f 67/67/247 90/90/248 91/91/249
f 67/67/250 91/91/251 92/92/252
f 67/67/253 92/92/254 93/93/255
f 67/67/256 93/93/257 94/94/258
f 67/67/259 94/94/260 95/95/261
f 67/67/262 95/95/263 96/96/264
f 67/67/265 96/96/266 97/97/267
f 67/67/268 97/97/269 98/98/270
f 99/99/271 100/100/272 2/2/273
f 99/99/274 2/2/275 1/1/276
f 66/66/277 65/65/278 100/100/279
f 66/66/280 100/100/281 99/99/282
f 101/101/283 102/102/284 103/103/285
f 101/101/286 103/103/287 104/104/288
f 101/101/289 104/104/290 105/105/291
f 101/101/292 105/105/293 106/106/294
f 101/101/295 106/106/296 107/107/297
f 101/101/298 107/107/299 108/108/300
f 101/101/301 108/108/302 109/109/303
f 101/101/304 109/109/305 110/110/306
f 101/101/307 110/110/308 111/111/309
f 101/101/310 111/111/311 112/112/312
f 101/101/313 112/112/314 113/113/315
f 101/101/316 113/113/317 114/114/318
f 101/101/319 114/114/320 115/115/321
f 101/101/322 115/115/323 116/116/324
f 101/101/325 116/116/326 117/117/327
f 101/101/328 117/117/329 118/118/330
f 101/101/331 118/118/332 119/119/333
f 101/101/334 119/119/335 120/120/336
f 101/101/337 120/120/338 121/121/339
f 101/101/340 121/121/341 122/122/342
f 101/101/343 122/122/344 123/123/345
f 101/101/346 123/123/347 124/124/348
f 101/101/349 124/124/350 125/125/351
f 101/101/352 125/125/353 126/126/354
f 101/101/355 126/126/356 127/127/357
f 101/101/358 127/127/359 128/128/360
f 101/101/361 128/128/362 129/129/363
f 101/101/364 129/129/365 130/130/366
f 101/101/367 130/130/368 131/131/369
f 101/101/370 131/131/371 132/132/372
