# This file uses centimeters as units for non-parametric coordinates.

mtllib Whiteboard.mtl
g default
v -2.488306 0.866991 5.907640
v 2.169047 0.866991 5.907640
v 2.169047 2.619020 5.907640
v -2.488306 2.619020 5.907640
vt 0.000000 0.000000
vt 0.000000 0.000000
vt 0.000000 0.000000
vt 0.000000 0.000000
vn 0.000000 -0.000000 1.000000
vn 0.000000 -0.000000 1.000000
vn 0.000000 -0.000000 1.000000
vn 0.000000 -0.000000 1.000000
vn 0.000000 -0.000000 1.000000
vn 0.000000 -0.000000 1.000000
s off
g Whiteboard
usemtl initialShadingGroup
f 1/1/1 2/2/2 3/3/3
f 1/1/4 3/3/5 4/4/6
