# This file uses centimeters as units for non-parametric coordinates.

mtllib Whiteboard2.mtl
g default
v 2.753697 0.926572 -5.918409
v 3.616815 0.926572 -5.918408
v 3.616815 2.232558 -5.918408
v 2.753697 2.232558 -5.918409
v -3.954224 0.926572 -5.918409
v -3.091106 0.926572 -5.918408
v -3.091106 2.232558 -5.918408
v -3.954224 2.232558 -5.918409
vt -0.066027 0.230060
vt 0.804330 0.230060
vt 0.804330 1.157991
vt -0.066027 1.157991
vt -0.066027 0.230060
vt 0.804330 0.230060
vt 0.804330 1.157991
vt -0.066027 1.157991
vn 0.000000 0.000000 1.000000
vn 0.000000 0.000000 1.000000
vn 0.000000 0.000000 1.000000
vn 0.000000 0.000000 1.000000
vn 0.000000 0.000000 1.000000
vn 0.000000 0.000000 1.000000
vn 0.000000 0.000000 1.000000
vn 0.000000 0.000000 1.000000
vn 0.000000 0.000000 1.000000
vn 0.000000 0.000000 1.000000
vn 0.000000 0.000000 1.000000
vn 0.000000 0.000000 1.000000
s off
g Whiteboard2
usemtl initialShadingGroup
f 1/1/1 2/2/2 3/3/3
f 1/1/4 3/3/5 4/4/6
f 5/5/7 6/6/8 7/7/9
f 5/5/10 7/7/11 8/8/12
