# This file uses centimeters as units for non-parametric coordinates.

mtllib Whiteboard3.mtl
g default
v -1.074154 0.937386 -5.885175
v -1.074154 2.243057 -5.885175
v -2.839636 2.243057 -5.885175
v -2.839636 0.937386 -5.885175
v 2.560453 0.937386 -5.885175
v 2.560453 2.243057 -5.885175
v 0.725875 2.243057 -5.885175
v 0.725875 0.937386 -5.885175
v 0.725875 0.937386 -5.885175
v 0.725875 2.243057 -5.885175
v -1.074154 2.243057 -5.885175
v -1.074154 0.937386 -5.885175
vt 0.550232 0.387120
vt 0.550232 0.514118
vt 0.378510 0.514118
vt 0.378510 0.387120
vt 0.544522 0.386324
vt 0.544522 0.500560
vt 0.384010 0.500560
vt 0.384010 0.386324
vt 0.980170 0.017339
vt 0.980170 0.982905
vt 0.027938 0.982905
vt 0.027938 0.017339
vn 0.000000 0.000000 1.000000
vn 0.000000 0.000000 1.000000
vn 0.000000 0.000000 1.000000
vn 0.000000 0.000000 1.000000
vn 0.000000 0.000000 1.000000
vn 0.000000 0.000000 1.000000
vn 0.000000 0.000000 1.000000
vn 0.000000 0.000000 1.000000
vn 0.000000 0.000000 1.000000
vn 0.000000 0.000000 1.000000
vn 0.000000 0.000000 1.000000
vn 0.000000 0.000000 1.000000
vn 0.000000 0.000000 1.000000
vn 0.000000 0.000000 1.000000
vn 0.000000 0.000000 1.000000
vn 0.000000 0.000000 1.000000
vn 0.000000 0.000000 1.000000
vn 0.000000 0.000000 1.000000
s off
g Whiteboard3
usemtl initialShadingGroup
f 1/1/1 2/2/2 3/3/3
f 1/1/4 3/3/5 4/4/6
f 5/5/7 6/6/8 7/7/9
f 5/5/10 7/7/11 8/8/12
f 9/9/13 10/10/14 11/11/15
f 9/9/16 11/11/17 12/12/18
