# This file uses centimeters as units for non-parametric coordinates.

mtllib WoodFrame.mtl
g default
v -3.990671 0.893569 -5.918828
v -3.054659 0.893569 -5.918827
v -3.054659 0.893569 -5.906421
v -3.990671 0.893569 -5.906422
v -3.054659 2.265561 -5.918827
v -3.990671 2.265561 -5.918828
v -3.990671 2.265561 -5.906422
v -3.054659 2.265561 -5.906421
v -3.990671 2.265561 -5.918828
v -3.990671 0.893569 -5.918828
v -3.990671 0.893569 -5.906422
v -3.990671 2.265561 -5.906422
v -3.054659 0.893569 -5.918827
v -3.054659 2.265561 -5.918827
v -3.054659 2.265561 -5.906421
v -3.054659 0.893569 -5.906421
v -3.091106 0.926572 -5.906840
v -3.954224 0.926572 -5.906841
v -3.990671 0.893569 -5.906422
v -3.054659 0.893569 -5.906421
v -3.954224 2.232558 -5.906841
v -3.091106 2.232558 -5.906840
v -3.054659 2.265561 -5.906421
v -3.990671 2.265561 -5.906422
v -3.954224 0.926572 -5.906841
v -3.954224 2.232558 -5.906841
v -3.990671 2.265561 -5.906422
v -3.990671 0.893569 -5.906422
v -3.091106 2.232558 -5.906840
v -3.091106 0.926572 -5.906840
v -3.054659 0.893569 -5.906421
v -3.054659 2.265561 -5.906421
v -3.091106 2.232558 -5.918408
v -3.091106 0.926572 -5.918408
v -3.091106 0.926572 -5.906840
v -3.091106 2.232558 -5.906840
v -3.954224 0.926572 -5.918409
v -3.954224 2.232558 -5.918409
v -3.954224 2.232558 -5.906841
v -3.954224 0.926572 -5.906841
v -3.954224 2.232558 -5.918409
v -3.091106 2.232558 -5.918408
v -3.091106 2.232558 -5.906840
v -3.954224 2.232558 -5.906841
v -3.091106 0.926572 -5.918408
v -3.954224 0.926572 -5.918409
v -3.954224 0.926572 -5.906841
v -3.091106 0.926572 -5.906840
v 2.717250 0.893569 -5.918828
v 3.653263 0.893569 -5.918827
v 3.653263 0.893569 -5.906421
v 2.717250 0.893569 -5.906422
v 3.653263 2.265561 -5.918827
v 2.717250 2.265561 -5.918828
v 2.717250 2.265561 -5.906422
v 3.653263 2.265561 -5.906421
v 2.717250 2.265561 -5.918828
v 2.717250 0.893569 -5.918828
v 2.717250 0.893569 -5.906422
v 2.717250 2.265561 -5.906422
v 3.653263 0.893569 -5.918827
v 3.653263 2.265561 -5.918827
v 3.653263 2.265561 -5.906421
v 3.653263 0.893569 -5.906421
v 3.616815 0.926572 -5.906840
v 2.753697 0.926572 -5.906841
v 2.717250 0.893569 -5.906422
v 3.653263 0.893569 -5.906421
v 2.753697 2.232558 -5.906841
v 3.616815 2.232558 -5.906840
v 3.653263 2.265561 -5.906421
v 2.717250 2.265561 -5.906422
v 2.753697 0.926572 -5.906841
v 2.753697 2.232558 -5.906841
v 2.717250 2.265561 -5.906422
v 2.717250 0.893569 -5.906422
v 3.616815 2.232558 -5.906840
v 3.616815 0.926572 -5.906840
v 3.653263 0.893569 -5.906421
v 3.653263 2.265561 -5.906421
v 3.616815 2.232558 -5.918408
v 3.616815 0.926572 -5.918408
v 3.616815 0.926572 -5.906840
v 3.616815 2.232558 -5.906840
v 2.753697 0.926572 -5.918409
v 2.753697 2.232558 -5.918409
v 2.753697 2.232558 -5.906841
v 2.753697 0.926572 -5.906841
v 2.753697 2.232558 -5.918409
v 3.616815 2.232558 -5.918408
v 3.616815 2.232558 -5.906840
v 2.753697 2.232558 -5.906841
v 3.616815 0.926572 -5.918408
v 2.753697 0.926572 -5.918409
v 2.753697 0.926572 -5.906841
v 3.616815 0.926572 -5.906840
vt 0.000000 0.000000
vt 0.000000 0.000000
vt 0.000000 0.000000
vt 0.000000 0.000000
vt 0.000000 0.000000
vt 0.000000 0.000000
vt 0.000000 0.000000
vt 0.000000 0.000000
vt 0.000000 0.000000
vt 0.000000 0.000000
vt 0.000000 0.000000
vt 0.000000 0.000000
vt 0.000000 0.000000
vt 0.000000 0.000000
vt 0.000000 0.000000
vt 0.000000 0.000000
vt 0.000000 0.000000
vt 0.000000 0.000000
vt 0.000000 0.000000
vt 0.000000 0.000000
vt 0.000000 0.000000
vt 0.000000 0.000000
vt 0.000000 0.000000
vt 0.000000 0.000000
vt 0.000000 0.000000
vt 0.000000 0.000000
vt 0.000000 0.000000
vt 0.000000 0.000000
vt 0.000000 0.000000
vt 0.000000 0.000000
vt 0.000000 0.000000
vt 0.000000 0.000000
vt 0.000000 0.000000
vt 0.000000 0.000000
vt 0.000000 0.000000
vt 0.000000 0.000000
vt 0.000000 0.000000
vt 0.000000 0.000000
vt 0.000000 0.000000
vt 0.000000 0.000000
vt 0.000000 0.000000
vt 0.000000 0.000000
vt 0.000000 0.000000
vt 0.000000 0.000000
vt 0.000000 0.000000
vt 0.000000 0.000000
vt 0.000000 0.000000
vt 0.000000 0.000000
vt 0.000000 0.000000
vt 0.000000 0.000000
vt 0.000000 0.000000
vt 0.000000 0.000000
vt 0.000000 0.000000
vt 0.000000 0.000000
vt 0.000000 0.000000
vt 0.000000 0.000000
vt 0.000000 0.000000
vt 0.000000 0.000000
vt 0.000000 0.000000
vt 0.000000 0.000000
vt 0.000000 0.000000
vt 0.000000 0.000000
vt 0.000000 0.000000
vt 0.000000 0.000000
vt 0.000000 0.000000
vt 0.000000 0.000000
vt 0.000000 0.000000
vt 0.000000 0.000000
vt 0.000000 0.000000
vt 0.000000 0.000000
vt 0.000000 0.000000
vt 0.000000 0.000000
vt 0.000000 0.000000
vt 0.000000 0.000000
vt 0.000000 0.000000
vt 0.000000 0.000000
vt 0.000000 0.000000
vt 0.000000 0.000000
vt 0.000000 0.000000
vt 0.000000 0.000000
vt 0.000000 0.000000
vt 0.000000 0.000000
vt 0.000000 0.000000
vt 0.000000 0.000000
vt 0.000000 0.000000
vt 0.000000 0.000000
vt 0.000000 0.000000
vt 0.000000 0.000000
vt 0.000000 0.000000
vt 0.000000 0.000000
vt 0.000000 0.000000
vt 0.000000 0.000000
vt 0.000000 0.000000
vt 0.000000 0.000000
vt 0.000000 0.000000
vt 0.000000 0.000000
vn 0.000000 -1.000000 0.000000
vn 0.000000 -1.000000 0.000000
vn 0.000000 -1.000000 0.000000
vn 0.000000 -1.000000 0.000000
vn 0.000000 -1.000000 0.000000
vn 0.000000 -1.000000 0.000000
vn 0.000000 1.000000 0.000000
vn 0.000000 1.000000 0.000000
vn 0.000000 1.000000 0.000000
vn 0.000000 1.000000 0.000000
vn 0.000000 1.000000 0.000000
vn 0.000000 1.000000 0.000000
vn -1.000000 0.000000 0.000000
vn -1.000000 0.000000 0.000000
vn -1.000000 0.000000 0.000000
vn -1.000000 0.000000 0.000000
vn -1.000000 0.000000 0.000000
vn -1.000000 0.000000 0.000000
vn 1.000000 0.000000 0.000000
vn 1.000000 0.000000 0.000000
vn 1.000000 0.000000 0.000000
vn 1.000000 0.000000 0.000000
vn 1.000000 0.000000 0.000000
vn 1.000000 0.000000 0.000000
vn 0.000000 0.012700 0.999919
vn 0.000000 0.012700 0.999919
vn 0.000000 0.012700 0.999919
vn 0.000000 0.012700 0.999919
vn 0.000000 0.012700 0.999919
vn 0.000000 0.012700 0.999919
vn 0.000000 -0.012700 0.999919
vn 0.000000 -0.012700 0.999919
vn 0.000000 -0.012700 0.999919
vn 0.000000 -0.012700 0.999919
vn 0.000000 -0.012700 0.999919
vn 0.000000 -0.012700 0.999919
vn 0.011500 0.000000 0.999934
vn 0.011500 0.000000 0.999934
vn 0.011500 0.000000 0.999934
vn 0.011500 0.000000 0.999934
vn 0.011500 0.000000 0.999934
vn 0.011500 0.000000 0.999934
vn -0.011500 0.000000 0.999934
vn -0.011500 0.000000 0.999934
vn -0.011500 0.000000 0.999934
vn -0.011500 0.000000 0.999934
vn -0.011500 0.000000 0.999934
vn -0.011500 0.000000 0.999934
vn -1.000000 0.000000 0.000000
vn -1.000000 0.000000 0.000000
vn -1.000000 0.000000 0.000000
vn -1.000000 0.000000 0.000000
vn -1.000000 0.000000 0.000000
vn -1.000000 0.000000 0.000000
vn 1.000000 0.000000 0.000000
vn 1.000000 0.000000 0.000000
vn 1.000000 0.000000 0.000000
vn 1.000000 0.000000 0.000000
vn 1.000000 0.000000 0.000000
vn 1.000000 0.000000 0.000000
vn 0.000000 -1.000000 0.000000
vn 0.000000 -1.000000 0.000000
vn 0.000000 -1.000000 0.000000
vn 0.000000 -1.000000 0.000000
vn 0.000000 -1.000000 0.000000
vn 0.000000 -1.000000 0.000000
vn 0.000000 1.000000 0.000000
vn 0.000000 1.000000 0.000000
vn 0.000000 1.000000 0.000000
vn 0.000000 1.000000 0.000000
vn 0.000000 1.000000 0.000000
vn 0.000000 1.000000 0.000000
vn 0.000000 -1.000000 0.000000
vn 0.000000 -1.000000 0.000000
vn 0.000000 -1.000000 0.000000
vn 0.000000 -1.000000 0.000000
vn 0.000000 -1.000000 0.000000
vn 0.000000 -1.000000 0.000000
vn 0.000000 1.000000 0.000000
vn 0.000000 1.000000 0.000000
vn 0.000000 1.000000 0.000000
vn 0.000000 1.000000 0.000000
vn 0.000000 1.000000 0.000000
vn 0.000000 1.000000 0.000000
vn -1.000000 0.000000 0.000000
vn -1.000000 0.000000 0.000000
vn -1.000000 0.000000 0.000000
vn -1.000000 0.000000 0.000000
vn -1.000000 0.000000 0.000000
vn -1.000000 0.000000 0.000000
vn 1.000000 0.000000 0.000000
vn 1.000000 0.000000 0.000000
vn 1.000000 0.000000 0.000000
vn 1.000000 0.000000 0.000000
vn 1.000000 0.000000 0.000000
vn 1.000000 0.000000 0.000000
vn 0.000000 0.012700 0.999919
vn 0.000000 0.012700 0.999919
vn 0.000000 0.012700 0.999919
vn 0.000000 0.012700 0.999919
vn 0.000000 0.012700 0.999919
vn 0.000000 0.012700 0.999919
vn 0.000000 -0.012700 0.999919
vn 0.000000 -0.012700 0.999919
vn 0.000000 -0.012700 0.999919
vn 0.000000 -0.012700 0.999919
vn 0.000000 -0.012700 0.999919
vn 0.000000 -0.012700 0.999919
vn 0.011500 0.000000 0.999934
vn 0.011500 0.000000 0.999934
vn 0.011500 0.000000 0.999934
vn 0.011500 0.000000 0.999934
vn 0.011500 0.000000 0.999934
vn 0.011500 0.000000 0.999934
vn -0.011500 0.000000 0.999934
vn -0.011500 0.000000 0.999934
vn -0.011500 0.000000 0.999934
vn -0.011500 0.000000 0.999934
vn -0.011500 0.000000 0.999934
vn -0.011500 0.000000 0.999934
vn -1.000000 0.000000 0.000000
vn -1.000000 0.000000 0.000000
vn -1.000000 0.000000 0.000000
vn -1.000000 0.000000 0.000000
vn -1.000000 0.000000 0.000000
vn -1.000000 0.000000 0.000000
vn 1.000000 0.000000 0.000000
vn 1.000000 0.000000 0.000000
vn 1.000000 0.000000 0.000000
vn 1.000000 0.000000 0.000000
vn 1.000000 0.000000 0.000000
vn 1.000000 0.000000 0.000000
vn 0.000000 -1.000000 0.000000
vn 0.000000 -1.000000 0.000000
vn 0.000000 -1.000000 0.000000
vn 0.000000 -1.000000 0.000000
vn 0.000000 -1.000000 0.000000
vn 0.000000 -1.000000 0.000000
vn 0.000000 1.000000 0.000000
vn 0.000000 1.000000 0.000000
vn 0.000000 1.000000 0.000000
vn 0.000000 1.000000 0.000000
vn 0.000000 1.000000 0.000000
vn 0.000000 1.000000 0.000000
s off
g WoodFrame
usemtl initialShadingGroup
f 1/1/1 2/2/2 3/3/3
f 1/1/4 3/3/5 4/4/6
f 5/5/7 6/6/8 7/7/9
f 5/5/10 7/7/11 8/8/12
f 9/9/13 10/10/14 11/11/15
f 9/9/16 11/11/17 12/12/18
f 13/13/19 14/14/20 15/15/21
f 13/13/22 15/15/23 16/16/24
f 17/17/25 18/18/26 19/19/27
f 17/17/28 19/19/29 20/20/30
f 21/21/31 22/22/32 23/23/33
f 21/21/34 23/23/35 24/24/36
f 25/25/37 26/26/38 27/27/39
f 25/25/40 27/27/41 28/28/42
f 29/29/43 30/30/44 31/31/45
f 29/29/46 31/31/47 32/32/48
f 33/33/49 34/34/50 35/35/51
f 33/33/52 35/35/53 36/36/54
f 37/37/55 38/38/56 39/39/57
f 37/37/58 39/39/59 40/40/60
f 41/41/61 42/42/62 43/43/63
f 41/41/64 43/43/65 44/44/66
f 45/45/67 46/46/68 47/47/69
f 45/45/70 47/47/71 48/48/72
f 49/49/73 50/50/74 51/51/75
f 49/49/76 51/51/77 52/52/78
f 53/53/79 54/54/80 55/55/81
f 53/53/82 55/55/83 56/56/84
f 57/57/85 58/58/86 59/59/87
f 57/57/88 59/59/89 60/60/90
f 61/61/91 62/62/92 63/63/93
f 61/61/94 63/63/95 64/64/96
f 65/65/97 66/66/98 67/67/99
f 65/65/100 67/67/101 68/68/102
f 69/69/103 70/70/104 71/71/105
f 69/69/106 71/71/107 72/72/108
f 73/73/109 74/74/110 75/75/111
f 73/73/112 75/75/113 76/76/114
f 77/77/115 78/78/116 79/79/117
f 77/77/118 79/79/119 80/80/120
f 81/81/121 82/82/122 83/83/123
f 81/81/124 83/83/125 84/84/126
f 85/85/127 86/86/128 87/87/129
f 85/85/130 87/87/131 88/88/132
f 89/89/133 90/90/134 91/91/135
f 89/89/136 91/91/137 92/92/138
f 93/93/139 94/94/140 95/95/141
f 93/93/142 95/95/143 96/96/144
